<svg xmlns="http://www.w3.org/2000/svg" xmlns:xlink="http://www.w3.org/1999/xlink" version="1.1" x="0px" y="0px" viewBox="0 0 100 125" enable-background="new 0 0 100 100" xml:space="preserve"><path d="M68.357,42.514c-0.769,0-1.517,0.077-2.25,0.196V32.2c0-4.578-7.114-6.976-14.144-6.976c-7.027,0-14.142,2.396-14.142,6.976  v3.938c-1.938-0.435-4.058-0.661-6.179-0.661c-7.027,0-14.142,2.396-14.142,6.977V63.82c0,4.58,7.114,6.978,14.142,6.978  c2.352,0,4.698-0.279,6.798-0.813c1.864,3.15,7.717,4.791,13.522,4.791c5.526,0,11.088-1.49,13.217-4.35  c1.022,0.232,2.082,0.369,3.176,0.369c7.797,0,14.141-6.344,14.141-14.146C82.499,48.857,76.154,42.514,68.357,42.514z   M37.824,66.432c-1.619,0.438-3.675,0.748-6.179,0.748c-6.944,0-10.525-2.354-10.525-3.359v-2.317  c2.722,1.438,6.634,2.172,10.525,2.172c2.121,0,4.243-0.228,6.179-0.654V66.432z M37.824,59.307c-1.617,0.438-3.671,0.75-6.179,0.75  c-6.944,0-10.525-2.354-10.525-3.359V54.38c2.722,1.432,6.634,2.168,10.525,2.168c2.122,0,4.241-0.229,6.179-0.658V59.307z   M37.824,52.182c-1.617,0.438-3.671,0.75-6.179,0.75c-6.944,0-10.525-2.354-10.525-3.356v-2.318c2.722,1.432,6.634,2.17,10.525,2.17  c2.121,0,4.241-0.229,6.179-0.658V52.182z M37.824,45.059c-1.617,0.438-3.671,0.75-6.179,0.75c-6.944,0-10.525-2.354-10.525-3.356  c0-1.004,3.581-3.358,10.525-3.358c2.508,0,4.562,0.311,6.179,0.751V45.059z M51.966,28.841c6.943,0,10.523,2.354,10.523,3.357  c0,1.004-3.58,3.358-10.523,3.358c-6.945,0-10.525-2.354-10.525-3.358S45.021,28.841,51.966,28.841z M41.44,37.003  c2.723,1.435,6.634,2.172,10.525,2.172c3.891,0,7.803-0.737,10.523-2.17v2.31c0,1.006-3.58,3.358-10.523,3.358  c-6.945,0-10.525-2.354-10.525-3.358V37.003z M41.44,44.12c2.723,1.435,6.634,2.172,10.525,2.172c2.947,0,5.904-0.427,8.352-1.254  c-1.665,1.153-3.063,2.662-4.104,4.407c-1.241,0.205-2.644,0.343-4.248,0.343c-6.945,0-10.525-2.354-10.525-3.356V44.12L41.44,44.12  z M41.44,51.234c2.723,1.433,6.634,2.17,10.525,2.17c0.896,0,1.791-0.053,2.676-0.131c-0.268,1.086-0.426,2.215-0.426,3.381  c0,0.056,0.008,0.107,0.008,0.162c-0.708,0.06-1.457,0.095-2.258,0.095c-6.945,0-10.525-2.354-10.525-3.354V51.234z M41.44,58.357  c2.723,1.433,6.634,2.17,10.525,2.17c0.929,0,1.854-0.055,2.767-0.141c0.322,1.176,0.789,2.288,1.388,3.321  c-1.219,0.193-2.589,0.326-4.152,0.326c-6.945,0-10.526-2.354-10.526-3.359L41.44,58.357L41.44,58.357L41.44,58.357z M51.966,71.159  c-6.945,0-10.525-2.354-10.525-3.359v-2.318c2.722,1.434,6.634,2.172,10.525,2.172c2.295,0,4.59-0.266,6.647-0.773  c0.858,0.82,1.815,1.535,2.859,2.119C59.97,70.027,56.785,71.159,51.966,71.159z M68.357,67.18c-5.804,0-10.524-4.722-10.524-10.525  c0-5.803,4.721-10.522,10.524-10.522c5.803,0,10.524,4.722,10.524,10.522C78.882,62.458,74.16,67.18,68.357,67.18z M72.784,49.437  c-0.572-0.393-1.246-0.675-2.021-0.848c-0.776-0.17-1.614-0.256-2.513-0.256c-0.67,0-1.373,0.041-2.107,0.123  c-0.735,0.082-1.405,0.188-2.01,0.317c-0.146,0.032-0.281,0.119-0.404,0.258c-0.123,0.14-0.184,0.363-0.184,0.673v10.168h-1.117  c-0.174,0-0.336,0.129-0.336,0.332v0.879c0,0.181,0.16,0.34,0.336,0.34h1.117v2.912c0,0.182,0.063,0.33,0.187,0.453  c0.123,0.123,0.274,0.185,0.457,0.185h1.754c0.183,0,0.329-0.062,0.445-0.185c0.114-0.123,0.173-0.271,0.173-0.453v-2.912h3.507  c0.174,0,0.335-0.131,0.335-0.334v-0.877c0-0.184-0.158-0.34-0.335-0.34h-3.507v-1.025h1.466c0.944,0,1.819-0.115,2.626-0.344  s1.503-0.571,2.09-1.028c0.586-0.458,1.047-1.029,1.381-1.718c0.334-0.688,0.5-1.492,0.5-2.424c0-0.933-0.164-1.715-0.49-2.354  C73.806,50.343,73.355,49.829,72.784,49.437z M70.648,55.698c-0.642,0.531-1.519,0.797-2.634,0.797H66.56v-5.611  c0.177-0.065,0.404-0.118,0.68-0.159c0.274-0.04,0.623-0.063,1.044-0.063c1.034,0,1.849,0.238,2.438,0.711  c0.59,0.475,0.886,1.17,0.886,2.084C71.607,54.419,71.288,55.167,70.648,55.698z"/></svg>